<?xml version="1.0" encoding="UTF-8"?>
<svg id="Layer_2" data-name="Layer 2" xmlns="http://www.w3.org/2000/svg" viewBox="0 0 90.6 74.74">
  <defs>
    <style>
      .cls-1 {
        fill: #a8ad00;
        stroke-width: 0px;
      }
    </style>
  </defs>
  <g id="Layer_1-2" data-name="Layer 1">
    <path class="cls-1" d="m33,23.14c-1.83,7.96-14.36,8.58-18.62,2.42.06-.1-1.22-1.07-1.64-3.35-.55-3.02.31-6.98,2.96-9.24,1.8-1.53,3.65-2.72,5.65-3.4.85-.29,1.64-.63,2.47-.78l.89-.19.57-.07c1.82-.19,3.63-.25,5.45-.19l.33.05.61.1,2.12.5c2.03.56,5.71,1.59,9.16,8.63l1.94,3.46c2,4.36,5.39,6.94,12.27,9.28,6.88,2.34,14.68.72,14.68.72,2.25-.49,4.41-1.81,6.47-3.48,5.35-4.33,5.56-10.29,1.35-15.46,0,0-2.78-2.85-5.5-4.36-2.73-1.51-6.9-1.79-6.9-1.79-6.52,0-11.89,1.92-12.78,7.16-.21,1.26-.99,4.76,2.11,7.26,1.95,1.57,5.75,3.58,10.27,2.35,7.77-2.12,2.71-9.28-.57-8.07.67.59,1.07,1.36,1.07,2.2,0,1.88-2.02,3.41-4.52,3.41-1.98,0-3.67-.97-4.28-2.31-.12-.16-.24-.32-.35-.49-.05-.08-.24-.61-.33-.6-2.4-7.68,6.86-8.65,10.07-8.33,1.69.17,4.45,1.22,5.81,2.41l1.93,1.73c.08.08.42.63.49.54,1.13,1.73,4.23,6.71-.45,11.97-2.65,2.97-8.96,4.02-10.84,4.02-3.7,0-8.45-1.89-9.58-2.37,0,0-3.98-2.33-6.11-4.9-1.79-2.16-2.44-3.71-3.37-5.48-4.01-7.6-8.87-9.2-10.34-9.71-1.12-.39-7.43-1.95-14.97.08-9.25,2.48-16.97,14.67-7.62,22.52,1.27,1.07,2.4,1.77,3.78,2.21.89.28,8.87,2.35,15.44-1.9,1.9-1.23,4.52-3.8,4.52-8.16,0-3.01-2.79-6.32-4.35-7.04-7.47-3.48-12.24.67-12.32,3.02,0,0-.49,3.68,2.11,4.28,1.18.27,1.64.28,2.56-.12.11-.05-.1-.18-.12-.22l-.31-.72c-.14-.33-.22-.69-.22-1.06,0-1.88,2.02-3.41,4.52-3.41s3.37,1.23,4.51,3.25c.29,1.01.3,2.23-.02,3.62Zm27.13,39.34l-.72,1.01c-.71.88-1.46,1.48-2.13,2.27-2.31,2.71-5.53,4.96-8.17,6.84-.76.54-1.69,1.22-2.5,1.61l-.69.35c-.05.01-.59,0-.53.18,0,0-1.51-.07-2.84-.67-1.33-.6-2.08-1.84-2.3-2.12-.95-1.25-1.15-5.42.25-5.81,6.41-1.79,20.85-7.85,16.55-22.42l-.25-.71-.33-.77c-.36-.79-.97-1.71-1.54-2.46-.72-.94-1.62-1.8-2.43-2.44l-.86-.64-.66-.37c.01-.11-.34-.22-.41-.27l-.98-.53c-1.24-.64-2.7-1.36-4.09-1.56l-1.67-.29-.37-.05h-.49c-3.8-.32-9.42,1.31-11.91,3.95-1.1,1.17-2.19,2.8-2.63,4.38l-.34,1.84-.03.89c.19,5.37,2.02,8.23,5.42,9.68.77.33,1.7.46,2.77.54,0,0,3.58.05,5.48-.85,7.33-3.46,4.37-9.72,2.42-10.86-1.23-.72-4.52-1.89-5.51.95,2.76.23,4.91,2.01,4.91,4.17,0,2.32-1.72,4.2-6.9,4.2-1.93-.12-4.03-1.27-5.33-4.13-1.75-3.83.44-8.95,3.12-10.49.36-.21,2.38-1.38,4.27-1.82,1.89-.44,4.66-.17,4.66-.17l1.59.24c1.79.44,3.23,1.2,4.83,2.6l.91.92c.06.06.47.46.41.54l.54.65c-.04.08.37.61.42.71l.96,2.19.34,1.16.13.5c.51,2.59.38,4.82-.15,7.21l-.16.45-.27.78-.55,1.18c-.04.07-.42.51-.36.62l-1.28,1.64-.56.62c.07.08-.23.33-.24.34l-1.29,1.14c-1.83,1.3-3.89,2.33-5.82,2.96l-1.83.49-.32.06h-.45s-.73.14-.73.14l-.61.07-1.34.14c-1.6.04-3.01-.02-4.4-.23-1.91-.28-4.54-1.26-6.14-2.51-.8-.63-1.6-1.18-2.26-2.05l-.5-.49s-.05-.18-.12-.11c-.88-1.24-1.84-2.5-2.33-3.77l-.59-1.54-.21-.66-.22-.99-.09-.39-.13-.72c-.15-.92-.32-2.26-.29-3.32.06-1.84.3-3.27.67-4.89l.39-1.23.2-.5c.04-.11.2-.29.12-.34-.15-.08-5.02.91-11.91-2.15-2.34-1.04-4.9-3.43-7.12-6.04l-.58-.93c-.31-.5-1.06-2.05-1.21-2.63-.69-2.65-1.16-4.3-.43-8.47.32-1.82.95-3.29,1.69-4.86l.79-1.4c.05-.07.41-.38.32-.51,1.58-1.97,2.75-3.39,4.25-4.81,0,0,5.7-4.73,12.13-6.54,7.97-2.24,15.28-.6,15.28-.6,3.33.57,5.62,1.8,8.22,2.91.76.32,4.81,2.83,5.29,3.48l1.65-1.76c1.25-1.06,2.52-1.95,3.59-2.47,3.95-1.9,7.74-2.51,12.91-2.74,0,0,13.61.17,20.73,10.8-.04.11,5.83,8.61,2.19,15.41,0,0-5.15,10.74-17.46,12.44,0,0-2.64.3-5.01.43-2.05.11-4.18-.16-4.18-.16l.33.55.5.98.71,1.76.25.71.13.44c.9,3.91.8,6.72-.03,10.42l-.08.28-.2.61-.71,1.9c-.54,1.54-2.52,4.69-3.55,5.9Z"/>
  </g>
</svg>